<svg width="22" height="20" viewBox="0 0 22 20" fill="none" xmlns="http://www.w3.org/2000/svg">
<g clip-path="url(#clip0_26_29)">
<path d="M10.393 9.16216L8.48904 6.98627L8.76104 5.89831L14.7447 1.54653L18.2469 1.85322L19.2174 3.23299L15.3099 5.85849L21.2162 14.4323L19.8826 15.3704L13.9565 6.76786L10.393 9.16216Z" fill="#9C9C9C"/>
<path fill-rule="evenodd" clip-rule="evenodd" d="M3.40696 12.9582L6.51601 8.63952L11.639 10.0793L13.393 15.0947L10.284 19.4135L5.16102 17.9738L3.40696 12.9582ZM8.26664 10.8562L9.6 15.4276L5.6 17.2562L7.37778 14.5134L8.26664 10.8562Z" fill="#9C9C9C"/>
<path d="M4.4 6.4L3.6 0L6.4 4.8L6.8 7.2L4.4 6.4Z" fill="#9C9C9C"/>
<path d="M3.6 7.6L0 6.4L3.2 9.2L4.4 8.4L3.6 7.6Z" fill="#9C9C9C"/>
</g>
<defs>
<clipPath id="clip0_26_29">
<rect width="21.6" height="20" fill="white"/>
</clipPath>
</defs>
</svg>
