<svg width="17" height="20" viewBox="0 0 17 20" fill="none" xmlns="http://www.w3.org/2000/svg">
<g clip-path="url(#clip0_26_10)">
<path fill-rule="evenodd" clip-rule="evenodd" d="M4.59173 3.85689C2.71714 5.97822 1.15141 7.79585 1.11267 7.89615C1.06511 8.01896 1.98049 8.38667 3.92045 9.02415C5.50353 9.54445 6.87346 9.97674 6.9647 9.98504C7.09169 9.99644 10.452 6.13348 11.9544 4.24874C12.1492 4.00444 11.9956 3.81111 10.1617 1.99081C9.05842 0.895852 8.1209 0 8.07812 0C8.03534 0 6.46648 1.73556 4.59173 3.85689ZM11.0847 8.94667C9.98547 10.0378 9.12229 10.9879 9.16656 11.0578C9.21083 11.1279 10.1286 11.6167 11.206 12.1441L13.1648 13.1033L14.6593 11.6284C15.4814 10.8173 16.1538 10.0846 16.1538 10C16.1538 9.85022 13.3054 6.96296 13.1576 6.96296C13.1168 6.96296 12.184 7.8557 11.0847 8.94667ZM0 10.0247C0 10.1948 7.99182 20.0033 8.09936 19.9653C8.37622 19.8676 12.135 15.0717 12.0201 14.9628C11.9147 14.8627 9.02297 13.6538 0.486111 10.141C0.218675 10.0311 0 9.97867 0 10.0247Z" fill="#0CCCE4"/>
</g>
<defs>
<clipPath id="clip0_26_10">
<rect width="16.1538" height="20" fill="white"/>
</clipPath>
</defs>
</svg>
