<svg width="18" height="20" viewBox="0 0 18 20" fill="none" xmlns="http://www.w3.org/2000/svg">
<g clip-path="url(#clip0_32_217)">
<path fill-rule="evenodd" clip-rule="evenodd" d="M16.6666 6.66667C16.6666 1.11111 8.88889 0 8.88889 0C8.88889 0 1.11111 1.11111 1.11111 6.66667C1.11111 12.2222 1.33333 13.1111 0 14.4444C0 14.4444 1 20.0001 5.55556 20.0001C5.55556 20.0001 3.33333 17.7779 5.55556 12.2222C5.55556 12.2222 2.22222 12.2222 3.33333 7.77778C4.20332 7.73055 5.0706 7.91063 5.84987 8.30027C6.62916 8.68992 7.29357 9.27568 7.77778 10V15.5556L8.88889 16.6667L10 15.5556V10C10.4687 9.26047 11.1303 8.66274 11.9134 8.27117C12.6965 7.87962 13.5716 7.70903 14.4444 7.77778C15.5555 12.2222 12.2222 12.2222 12.2222 12.2222C14.4444 17.889 12.2222 20.0001 12.2222 20.0001C16.7777 20.0001 17.7777 14.4444 17.7777 14.4444C16.4444 13.1111 16.6666 12.2222 16.6666 6.66667Z" fill="#C3A758"/>
</g>
<defs>
<clipPath id="clip0_32_217">
<rect width="17.7778" height="20" fill="white"/>
</clipPath>
</defs>
</svg>
