<svg width="225" height="214" viewBox="0 0 225 214" fill="none" xmlns="http://www.w3.org/2000/svg">
<g clip-path="url(#clip0_32_185)">
<path d="M42.75 115.335H44.325V95.9621C44.4308 90.1376 45.7924 84.4048 48.3166 79.156C50.8408 73.9073 54.4681 69.2666 58.95 65.5516C53.6472 64.26 48.2075 63.6171 42.75 63.6368C19.125 63.6368 0 75.2379 0 90.1053C0 104.973 19.125 115.335 42.75 115.335Z" fill="#C3A758"/>
<path d="M44.325 151.264C44.325 151.264 44.325 150.138 44.325 149.687V135.946H42.75C27.6266 136.223 12.7572 132.031 0 123.895V140.339C0 154.305 19.125 165.568 42.75 165.568H44.325V151.264Z" fill="#C3A758"/>
<path d="M107.325 70.1695C104.44 69.9954 101.547 69.9954 98.6625 70.1695C93.4186 70.8414 88.2789 72.1656 83.3625 74.1116C79.2653 75.8253 75.4676 78.1827 72.1125 81.0947C69.9448 82.8436 68.1722 85.0328 66.9117 87.5179C65.6512 90.003 64.9315 92.7275 64.8 95.5116C64.8 109.816 84.0375 121.417 107.662 121.417C131.288 121.417 150.412 110.154 150.412 95.5116C150.075 81.7705 130.95 70.1695 107.325 70.1695Z" fill="#C3A758"/>
<path d="M107.325 171.313C131.4 171.313 149.512 160.049 150.075 150.138V130.653C137.301 138.728 122.428 142.843 107.325 142.479C92.1889 142.825 77.2846 138.713 64.4625 130.653V150.138C65.1375 160.275 83.1375 171.313 107.325 171.313Z" fill="#C3A758"/>
<path d="M150.075 183.927V180.999C137.119 188.589 122.335 192.484 107.325 192.262C92.2793 192.488 77.4581 188.593 64.4625 180.999V183.927C64.4625 200.484 83.7 214 107.325 214C130.95 214 150.075 200.484 150.075 183.927Z" fill="#C3A758"/>
<path d="M182.25 51.6979C205.875 51.6979 225 40.4347 225 25.9053C224.984 24.104 224.68 22.3168 224.1 20.6116C220.163 8.8979 202.5 0 182.25 0C162 0 144.338 8.8979 140.288 20.6116C139.708 22.3168 139.404 24.104 139.388 25.9053C139.388 40.2095 158.625 51.6979 182.25 51.6979Z" fill="#C3A758"/>
<path d="M170.325 119.502V146.421C174.259 147.15 178.25 147.526 182.25 147.547C204.075 147.547 221.062 138.537 225 129.301V109.478C212.018 117.005 197.251 120.896 182.25 120.741C178.254 120.561 174.273 120.147 170.325 119.502Z" fill="#C3A758"/>
<path d="M159.3 69.3811C166.311 76.4728 170.337 85.9866 170.55 95.9621V98.5526C174.487 99.2433 178.478 99.5826 182.475 99.5663C204.3 99.5663 221.288 90.6684 225.225 81.4326V60.4832C212.455 68.58 197.587 72.7324 182.475 72.4221C174.649 72.4476 166.855 71.4248 159.3 69.3811Z" fill="#C3A758"/>
<path d="M170.325 167.821V183.927C170.437 185.69 170.437 187.458 170.325 189.221C174.36 190.046 178.469 190.461 182.587 190.46C206.212 190.46 225.338 177.958 225.338 162.415V157.684C212.355 165.211 197.589 169.102 182.587 168.947C178.478 168.878 174.379 168.501 170.325 167.821Z" fill="#C3A758"/>
</g>
<defs>
<clipPath id="clip0_32_185">
<rect width="225" height="214" fill="white"/>
</clipPath>
</defs>
</svg>
