<svg width="200" height="176" viewBox="0 0 200 176" fill="none" xmlns="http://www.w3.org/2000/svg">
<g clip-path="url(#clip0_244_32)">
<path fill-rule="evenodd" clip-rule="evenodd" d="M135.879 0.554193C131.878 1.8216 128.369 4.89679 126.436 8.83171C125.406 10.9264 125.2 11.8309 125.073 14.8101C124.99 16.7409 125.078 18.9205 125.27 19.6533L125.617 20.9863L119.117 23.9766C115.542 25.6216 112.39 27.1563 112.112 27.3874C111.716 27.7168 111.442 27.3631 110.838 25.7462C109.827 23.034 109.382 20.6588 108.114 11.1853C107.457 6.27722 106.899 3.31002 106.644 3.36171C105.964 3.4994 93.1285 10.3664 89.6731 12.4411C85.5739 14.9022 79.9427 19.1307 75.7692 22.8812C73.9712 24.4973 72.3646 25.8245 72.1996 25.8307C72.0342 25.8369 67.9139 23.3005 63.0427 20.1941C58.1635 17.0826 54.0515 14.7013 53.8858 14.8907C53.7204 15.0801 52.6658 17.9254 51.5427 21.2135C50.4192 24.5016 48.9908 28.6239 48.3677 30.3739L47.235 33.5559H43.7742C41.8 33.5559 38.635 33.8972 36.4065 34.3504C18.72 37.9482 4.76462 51.943 1.17693 69.6794C0.296545 74.0317 0.105392 81.7441 0.775392 85.8831C1.78924 92.1457 4.31616 98.5842 7.85193 103.913L9.93693 107.056L8.93001 119.084C8.37616 125.7 8.02693 131.216 8.15347 131.343C8.28001 131.47 9.22308 131.049 10.2492 130.408L12.1154 129.242L12.3485 134.722C12.5865 140.316 13.2612 144.737 14.5812 149.348C15.3012 151.864 15.3023 151.988 14.6231 153.783C13.0281 157.998 13.4204 163.352 15.6215 167.408C17.0642 170.066 20.2692 172.982 23.3619 174.452L25.9615 175.686H89.6154H153.269L155.875 174.449C159.31 172.817 162.343 169.771 163.94 166.349C165.595 162.804 165.862 158.31 164.657 154.329L163.837 151.624L164.806 147.884C166.333 141.993 167.033 135.599 166.823 129.466L166.641 124.129L167.936 124.373L169.231 124.616V115.802V106.989L171.25 103.869L173.269 100.749L180.983 100.612L188.697 100.475L191.626 99.0224C195.014 97.3422 197.492 94.846 199.05 91.5436C200.005 89.5187 200.052 89.1411 199.933 84.3341C199.795 78.7283 199.294 77.1616 196.65 74.0645C195.685 72.9332 195.385 72.2224 195.385 71.0656C195.385 68.7935 194.018 63.8785 192.693 61.3853C191.09 58.3703 188.255 54.9892 185.222 52.4764L182.687 50.3763L185.928 47.3628C189.6 43.9493 191.38 41.676 193.096 38.207C194.349 35.6741 195.367 31.6559 195.378 29.1959C195.383 28.0978 195.677 27.4186 196.547 26.496C197.187 25.818 198.225 24.2377 198.855 22.9838C199.946 20.8127 200 20.4721 200 15.8137C200 11.1471 199.947 10.8161 198.842 8.59913C197.409 5.72335 194.218 2.62733 191.251 1.23264L189.038 0.192791L163.269 0.116808C142.72 0.0562534 137.172 0.144965 135.879 0.554193ZM136.617 9.69182C131.362 12.3003 131.041 20.2141 136.076 23.0517L137.612 23.9172L137.762 28.4473C137.884 32.096 138.082 33.3488 138.777 34.8862C140.018 37.6316 142.242 40.3585 145.367 42.9658C146.866 44.2166 148.037 45.2958 147.968 45.3641C147.9 45.4324 146.638 45.0679 145.164 44.5537C141.851 43.3982 136.442 42.427 133.315 42.4266L130.962 42.4258L129.464 36.5447C128.64 33.3098 127.856 30.4487 127.721 30.1864C127.434 29.6291 121.558 32.2403 113.317 36.5883C110.447 38.1025 108.027 39.3414 107.94 39.3414C107.854 39.3414 107.078 38.2564 106.218 36.9308C103.143 32.1959 101.117 26.6754 100.347 20.9358C100.097 19.0732 99.7554 17.3966 99.5881 17.2099C98.9 16.4404 88.9889 22.737 83.0435 27.7202C81.0523 29.3895 77.9819 32.263 76.22 34.1063C74.4585 35.9492 72.8892 37.404 72.7327 37.3384C72.5762 37.2733 69.2577 35.1847 65.3585 32.6973C61.4596 30.2099 58.1089 28.1599 57.9131 28.1414C57.7173 28.1233 56.9239 29.8983 56.1496 32.0856C54.4365 36.9265 52.4481 41.7161 51.8146 42.5273C51.4189 43.0341 50.9581 43.0684 48.8462 42.7471C41.0892 41.568 31.1077 44.0612 23.8004 49.0036C9.56731 58.6307 4.05347 77.6812 10.7985 93.9284C12.1346 97.1475 14.3115 100.699 16.7023 103.561L18.3135 105.489L17.8646 107.456C17.6177 108.538 17.2915 111.016 17.14 112.962L16.8639 116.499L19.2831 114.965C20.6135 114.122 21.7489 113.478 21.8054 113.535C21.8623 113.592 21.5712 115.385 21.1585 117.519C18.9115 129.144 19.4642 140.7 22.7362 150.493L23.8765 153.906L22.9527 155.154C20.4065 158.594 20.6254 162.528 23.5392 165.698C26.3539 168.76 21.5731 168.551 88.82 168.549C130.356 168.548 149.124 168.419 150.192 168.131C152.618 167.476 154.488 165.97 155.564 163.803C157.084 160.745 156.847 158.035 154.797 155.046L153.868 153.691L155.175 149.647C157.155 143.52 157.815 139.194 157.819 132.295C157.824 126.061 157.212 121.359 155.755 116.44C155.34 115.038 155 113.795 155 113.679C155 113.561 155.909 113.708 157.019 114.005C160.716 114.992 160.526 115.244 160.286 109.663L160.075 104.774L161.973 102.432C163.017 101.143 164.687 98.4847 165.685 96.5234L167.5 92.9572L176.705 92.9557C185.298 92.9537 186.023 92.8994 187.596 92.1357C188.612 91.6427 189.692 90.6955 190.314 89.7532C191.192 88.4225 191.346 87.7773 191.346 85.4326C191.346 83.0628 191.196 82.4488 190.275 81.0522C189.685 80.1593 188.603 79.1418 187.871 78.7912L186.538 78.1544V75.1591C186.538 69.9074 185.371 66.315 182.571 62.9547C181.837 62.073 179.428 59.802 177.219 57.9082C173.367 54.6055 171.923 52.7256 171.923 51.0111C171.923 49.2747 173.762 46.9378 177.855 43.4749C184.503 37.8487 186.105 34.9679 186.438 28.0434C186.631 24.0337 186.675 23.8621 187.646 23.3553C192.04 21.0627 192.858 14.3669 189.167 10.9145C186.957 8.84752 187.273 8.87105 161.839 8.87144C138.576 8.87182 138.248 8.88224 136.617 9.69182ZM138.926 15.502C138.309 16.1211 138.337 17.1582 138.985 17.6982C139.365 18.0141 145.8 18.1066 162.351 18.0345L185.192 17.935V16.5851V15.2351L162.292 15.1356C144.799 15.0596 139.281 15.1464 138.926 15.502ZM143.569 27.7283C143.867 32.3405 144.841 34.2224 148.711 37.6674C154.658 42.9604 155.662 43.9976 156.706 45.9218C157.948 48.2098 158.371 51.4902 157.73 53.8657C157.01 56.5348 155.017 59.0129 150.652 62.6678C148.366 64.5816 145.996 66.8966 145.385 67.8119C144.083 69.7643 143.372 72.7824 143.537 75.664L143.654 77.7186H161.923H180.192L180.192 74.0544C180.191 70.7494 180.087 70.2125 179.129 68.5779C178.545 67.5812 176.914 65.7588 175.503 64.528C167.253 57.3293 166.148 55.7209 166.162 50.9332C166.176 46.1745 167.059 44.8762 175.323 37.4673C179.403 33.8089 180.093 32.4802 180.309 27.8668L180.477 24.2991H161.912H143.348L143.569 27.7283ZM174.164 26.8836C173.831 27.2655 173.445 28.217 173.305 28.9988C173.113 30.0734 172.586 30.8108 171.141 32.0239C169.013 33.8101 168.644 35.2182 169.985 36.4347C171.096 37.4434 172.463 36.9273 174.899 34.5799C176.582 32.9588 177.099 32.1546 177.528 30.4938C177.96 28.8264 177.971 28.2317 177.587 27.4232C176.985 26.1562 175.062 25.8534 174.164 26.8836ZM90.6389 29.7409C86.2292 33.0614 79.4723 39.5049 76.2446 43.4676L74.2973 45.8582L67.6746 41.622C64.0323 39.2924 61.0115 37.4356 60.9615 37.4962C60.9119 37.5564 60.1423 39.3414 59.2512 41.4627C55.5196 50.3473 51.8819 56.3126 46.0977 63.0311C45.9181 63.2402 44.6689 62.9436 43.0577 62.3098C41.2589 61.6021 40.1931 61.3641 39.9435 61.6144C39.7346 61.8239 39.3669 63.148 39.1262 64.5569C38.5904 67.6942 39.1012 70.6363 40.5539 72.7801C41.0954 73.5796 41.5385 74.4262 41.5385 74.6615C41.5385 74.8972 40.3565 75.5548 38.9123 76.1229C35.0754 77.6326 28.1054 82.4434 28.8765 83.0497C28.9658 83.1195 30.6396 83.9303 32.5962 84.851C34.5531 85.7716 36.1539 86.5669 36.1539 86.619C36.1539 86.6707 34.9669 88.298 33.5165 90.2349C30.96 93.6488 26.5073 101.121 25.9777 102.886C25.6231 104.068 26.0731 103.998 29.2939 102.372C31.2715 101.373 31.9639 101.162 31.7919 101.612C31.6612 101.953 30.8731 104.546 30.0408 107.373C26.8454 118.226 25.9681 124.393 26.2612 133.941C26.4127 138.879 26.6739 141.417 27.2758 143.815C27.7219 145.589 28.1889 147.207 28.3142 147.41C28.4392 147.613 29.6304 146.671 30.9612 145.317C36.0965 140.091 42.8681 138.458 49.6131 140.82C53.2435 142.091 55.2089 143.749 60.0831 149.652C64.7615 155.317 66.13 157.506 66.1454 159.348C66.155 160.494 66.0877 160.473 72.3077 161.306C78.2689 162.104 98.5015 161.963 105.673 161.073C110.51 160.473 111.539 160.236 111.541 159.723C111.547 157.833 112.648 155.852 116.002 151.692C122.303 143.879 124.215 142.179 128.293 140.772C134.934 138.481 141.757 140.147 146.75 145.279C148.077 146.644 149.264 147.596 149.387 147.397C149.923 146.526 151.156 140.248 151.533 136.472C152.431 127.46 150.587 118.186 145.745 107.362C145.114 105.953 144.664 104.733 144.745 104.652C144.825 104.571 146.813 104.979 149.162 105.558C151.511 106.137 153.519 106.524 153.625 106.418C154.285 105.756 151.148 98.0442 148.868 94.721L147.695 93.012L142.374 92.8866C137.197 92.7644 137.013 92.7308 135.609 91.6555C132.945 89.6155 131.843 86.4744 132.688 83.327C133.166 81.5486 134.967 79.305 136.595 78.4603C137.692 77.8918 137.692 77.8902 137.702 73.948C137.709 70.5931 137.857 69.659 138.693 67.6904C139.233 66.4176 139.759 65.1089 139.862 64.7822C140.105 64.0054 135.072 60.2186 131.17 58.2419L128.269 56.7727L126 47.9606C124.752 43.1139 123.597 38.9966 123.433 38.811C123.129 38.467 116.014 42.086 110.06 45.6129L106.772 47.5603L104.91 45.5292C101.212 41.4963 97.9342 35.7185 95.9842 29.7953C95.4081 28.0454 94.9046 26.6133 94.865 26.6133C94.8254 26.6133 92.9235 28.0207 90.6389 29.7409ZM40.6662 49.0036C30.6858 50.1684 21.2931 57.0473 16.9373 66.3817C12.46 75.9771 13.6008 88.949 19.6415 97.1236L20.8704 98.7863L22.2 96.3522C22.9315 95.0134 24.2308 92.828 25.0869 91.4958C25.9431 90.1636 26.5769 89.0142 26.495 88.9413C26.4131 88.8684 24.7019 88.0588 22.6923 87.1424C20.6827 86.2256 18.9742 85.4307 18.8958 85.3755C18.8177 85.3204 19.5408 84.169 20.5031 82.8164C22.7969 79.5927 27.7312 74.977 30.6942 73.283L33.0554 71.9331L32.8215 68.4274C32.6489 65.8425 32.7562 64.1612 33.2304 62.0244C33.9308 58.8679 36.2031 53.7172 37.0369 53.3963C37.3239 53.286 39.0069 53.8086 40.7781 54.5573C42.5489 55.3063 44.0942 55.7907 44.2119 55.6334C44.33 55.4764 45.3489 53.9594 46.4762 52.2624L48.5262 49.1767L46.8592 48.916C44.8389 48.6001 44.0235 48.6117 40.6662 49.0036ZM132.847 49.4591C132.984 49.94 133.191 50.7693 133.308 51.3012C133.458 51.9866 134.194 52.6426 135.831 53.5521C137.102 54.2583 139.588 55.9427 141.356 57.295L144.57 59.7542L147.491 57.3771C149.148 56.0276 150.364 54.7528 150.302 54.4281C150.133 53.5517 145.193 51.069 141.538 50.0241C139.74 49.51 136.993 48.9758 135.434 48.8369C132.621 48.5862 132.601 48.5909 132.847 49.4591ZM139.075 84.2007C138.653 84.5104 138.44 85.0677 138.521 85.647L138.654 86.5897H161.923H185.192L185.318 85.7007C185.61 83.636 186.315 83.6969 162.142 83.6969C144.333 83.6969 139.622 83.7999 139.075 84.2007ZM54.6154 93.567C52.8523 96.42 48.7427 100.528 45.5923 102.586C43.14 104.188 43.0769 104.271 43.0769 105.886C43.0769 109.872 45.3285 114.222 48.7604 116.864C54.6146 121.371 63.5792 120.074 68.0881 114.067C70.0162 111.498 70.8558 108.915 70.8489 105.574C70.8342 98.33 65.4285 92.3332 58.2692 91.6188L55.9615 91.3886L54.6154 93.567ZM118.225 91.9556C114.288 92.9132 111.073 95.5634 108.956 99.5932C107.992 101.429 107.885 102.015 107.885 105.489C107.885 108.939 107.999 109.58 108.968 111.56C110.35 114.38 112.865 116.902 115.677 118.287C117.628 119.248 118.31 119.374 121.538 119.374C124.689 119.374 125.484 119.235 127.308 118.362C132.005 116.113 134.923 111.96 135.356 106.905L135.577 104.332L132.863 102.526C129.782 100.477 125.203 95.8322 123.658 93.1883C122.49 91.1896 121.911 91.0584 118.225 91.9556ZM155.451 93.243C155.523 93.4019 156.075 94.4742 156.678 95.6259L157.775 97.7195L159.08 95.6436C159.797 94.5019 160.385 93.4297 160.385 93.2608C160.385 93.0918 159.245 92.9537 157.853 92.9537C156.46 92.9537 155.379 93.0841 155.451 93.243ZM84.2812 127.875C79.0158 129.021 73.5308 132.556 70.3873 136.829C68.0958 139.944 67.8689 141.558 69.4573 143.451C70.2992 144.454 70.7219 144.638 72.1939 144.638C73.6808 144.638 74.0827 144.459 74.9481 143.412C77.5189 140.304 80.3831 137.752 82.3446 136.821C89.1627 133.587 96.6615 135.004 101.712 140.482C102.939 141.813 104.285 143.292 104.704 143.77C105.792 145.01 108.033 144.95 109.586 143.639C110.57 142.809 110.769 142.36 110.769 140.982C110.769 137.757 106.115 132.724 100.577 129.96C95.4715 127.412 89.7654 126.682 84.2812 127.875ZM39.0385 147.127C36.5485 148.343 36.2073 148.665 32.0704 153.702C27.1542 159.688 27.0689 159.836 27.8492 161.03L28.4792 161.994H43.6031C57.7665 161.994 58.7673 161.949 59.3635 161.289C59.7135 160.901 60 160.33 60 160.021C60 159.712 57.9973 156.999 55.5496 153.993C51.6415 149.193 50.8139 148.384 48.7573 147.354C45.6431 145.793 41.9469 145.707 39.0385 147.127ZM129.423 147.127C126.933 148.343 126.592 148.665 122.455 153.702C117.539 159.688 117.453 159.836 118.234 161.03L118.864 161.994H133.988C148.151 161.994 149.152 161.949 149.748 161.289C150.098 160.901 150.384 160.337 150.383 160.035C150.382 159.734 148.381 157.022 145.936 154.009C142.022 149.186 141.21 148.39 139.145 147.356C136.027 145.793 132.333 145.706 129.423 147.127Z" fill="#C3A758"/>
</g>
<defs>
<clipPath id="clip0_244_32">
<rect width="200" height="175.879" fill="white"/>
</clipPath>
</defs>
</svg>
