<svg width="114" height="95" viewBox="0 0 114 95" fill="none" xmlns="http://www.w3.org/2000/svg">
<g clip-path="url(#clip0_174_18)">
<path d="M104 47.5874C104 47.5589 104 47.5294 104 47.5009C104 47.4062 104 47.3123 103.999 47.2176L101.423 47.2323C101.424 47.3215 101.424 47.4108 101.424 47.5009C101.424 47.5285 101.424 47.5552 101.424 47.5828L104 47.5874ZM103.928 50.1363C103.934 50.0425 103.938 49.9477 103.943 49.853L101.37 49.7279C101.365 49.8171 101.361 49.9063 101.356 49.9955L103.928 50.1363ZM103.721 52.6769C103.731 52.5831 103.742 52.4892 103.751 52.3954L101.189 52.1333C101.18 52.2225 101.17 52.3108 101.16 52.4L103.721 52.6769ZM103.378 55.2037C103.394 55.1108 103.408 55.017 103.423 54.9241L100.879 54.5249C100.865 54.6132 100.851 54.7015 100.836 54.7898L103.378 55.2037ZM102.901 57.7085C102.921 57.6165 102.941 57.5236 102.961 57.4316L100.441 56.8953C100.422 56.9827 100.403 57.0701 100.385 57.1575L102.901 57.7085ZM102.287 60.1847C102.312 60.0936 102.337 60.0026 102.362 59.9115L99.8751 59.24C99.8521 59.3265 99.8282 59.412 99.8043 59.4985L102.287 60.1847ZM101.542 62.6241C101.572 62.5349 101.602 62.4448 101.631 62.3555L99.1843 61.5507C99.1567 61.6353 99.1282 61.7199 99.0996 61.8045L101.542 62.6241ZM100.665 65.0194C100.7 64.932 100.734 64.8437 100.769 64.7554L98.3692 63.819C98.337 63.9027 98.3039 63.9855 98.2708 64.0683L100.665 65.0194ZM99.6626 67.3577C99.7022 67.2721 99.7408 67.1866 99.7804 67.101L97.4346 66.0368C97.3978 66.1177 97.361 66.1987 97.3233 66.2796L99.6626 67.3577ZM98.5357 69.6398C98.5799 69.5561 98.6231 69.4733 98.6673 69.3896L96.3822 68.2012C96.3408 68.2803 96.2994 68.3594 96.258 68.4376L98.5357 69.6398ZM97.2874 71.8594C97.3362 71.7785 97.384 71.6975 97.4318 71.6166L95.2139 70.3076C95.1689 70.384 95.1229 70.4612 95.0769 70.5376L97.2874 71.8594ZM95.9214 74.0091C95.9738 73.9309 96.0262 73.8527 96.0787 73.7736L93.9343 72.3469C93.8847 72.4214 93.835 72.495 93.7853 72.5695L95.9214 74.0091ZM94.4412 76.0833C94.4983 76.0079 94.5544 75.9325 94.6114 75.857L92.5462 74.3181C92.4929 74.3899 92.4395 74.4607 92.3852 74.5325L94.4412 76.0833ZM92.8525 78.0757C92.9133 78.004 92.974 77.9313 93.0347 77.8586L91.0541 76.2112C90.9971 76.2802 90.94 76.3483 90.8821 76.4163L92.8525 78.0757ZM91.1599 79.9816C91.2243 79.9127 91.2887 79.8437 91.3531 79.7747L89.4636 78.0242C89.4029 78.0895 89.3422 78.1548 89.2805 78.2201L91.1599 79.9816ZM89.367 81.7947C89.4351 81.7294 89.5031 81.664 89.5712 81.5978L87.7774 79.7489C87.713 79.8115 87.6486 79.8731 87.5842 79.9347L89.367 81.7947ZM87.4793 83.5102C87.5511 83.4485 87.6219 83.3869 87.6937 83.3244L86.001 81.3826C85.9339 81.4414 85.8658 81.4994 85.7987 81.5583L87.4793 83.5102ZM85.5025 85.1227C85.577 85.0647 85.6524 85.0068 85.726 84.9488L84.1401 82.9196C84.0692 82.9748 83.9993 83.0291 83.9285 83.0843L85.5025 85.1227ZM83.4409 86.6275C83.5191 86.5742 83.5964 86.5199 83.6737 86.4657L82.1981 84.3546C82.1245 84.4061 82.051 84.4567 81.9774 84.5073L83.4409 86.6275ZM81.3012 88.0202C81.3822 87.9705 81.4622 87.9209 81.5432 87.8712L80.1826 85.6838C80.1063 85.7307 80.0308 85.7776 79.9545 85.8245L81.3012 88.0202ZM79.0898 89.296C79.1735 89.2509 79.2563 89.2059 79.3391 89.1599L78.099 86.9026C78.0208 86.9458 77.9417 86.9881 77.8635 87.0314L79.0898 89.296ZM76.8111 90.4523C76.8967 90.4118 76.9823 90.3704 77.0678 90.3299L75.951 88.0092C75.8701 88.0478 75.7891 88.0864 75.7082 88.1251L76.8111 90.4523ZM74.4718 91.4834C74.5592 91.4475 74.6475 91.4117 74.7349 91.3749L73.7451 88.9971C73.6623 89.0311 73.5795 89.0661 73.4967 89.1001L74.4718 91.4834ZM72.0801 92.3876C72.1693 92.3564 72.2594 92.3251 72.3487 92.2938L71.4895 89.8654C71.4048 89.8958 71.3202 89.9252 71.2356 89.9546L72.0801 92.3876ZM69.6487 93.1585C69.7398 93.1327 69.83 93.106 69.921 93.0794L69.1943 90.6086C69.1087 90.6335 69.0232 90.6583 68.9367 90.6832L69.6487 93.1585ZM67.1788 93.7968C67.2708 93.7757 67.3628 93.7545 67.4547 93.7324L66.8623 91.2259C66.7749 91.2461 66.6885 91.2663 66.6011 91.2866L67.1788 93.7968ZM64.6785 94.3009C64.7714 94.2844 64.8643 94.2687 64.9581 94.2512L64.5018 91.7161C64.4135 91.7318 64.3261 91.7474 64.2378 91.7631L64.6785 94.3009ZM62.1542 94.6698C62.2481 94.6587 62.3419 94.6468 62.4357 94.6357L62.1165 92.0804C62.0282 92.0914 61.939 92.1025 61.8507 92.1126L62.1542 94.6698ZM59.6153 94.9025C59.71 94.896 59.8039 94.8896 59.8977 94.8832L59.7155 92.314C59.6263 92.3205 59.5371 92.326 59.4479 92.3324L59.6153 94.9025ZM57.068 95C57.1628 94.9991 57.2566 94.9972 57.3514 94.9954L57.3054 92.4198C57.2161 92.4217 57.1269 92.4226 57.0368 92.4235L57.068 95ZM54.5199 94.9632C54.6137 94.9669 54.7076 94.9706 54.8023 94.9742L54.8925 92.4005C54.8032 92.3978 54.714 92.3941 54.6257 92.3904L54.5199 94.9632ZM51.9763 94.7912C52.0702 94.8004 52.164 94.8087 52.2588 94.8169L52.486 92.2515C52.3967 92.2432 52.3075 92.2359 52.2192 92.2267L51.9763 94.7912ZM49.4448 94.484C49.5386 94.4978 49.6315 94.5116 49.7253 94.5244L50.0896 91.9746C50.0013 91.9617 49.913 91.9489 49.8247 91.936L49.4448 94.484ZM46.9325 94.0406C47.0254 94.0599 47.1174 94.0783 47.2103 94.0967L47.7107 91.5699C47.6233 91.5524 47.535 91.5349 47.4476 91.5174L46.9325 94.0406ZM44.4487 93.4629C44.5398 93.4868 44.6318 93.5108 44.7229 93.5338L45.3594 91.0382C45.273 91.0161 45.1865 90.9941 45.1 90.9711L44.4487 93.4629ZM41.999 92.751C42.0892 92.7795 42.1793 92.808 42.2695 92.8365L43.0394 90.3787C42.9539 90.352 42.8692 90.3253 42.7837 90.2977L41.999 92.751ZM39.5916 91.9084C39.6799 91.9424 39.7682 91.9755 39.8565 92.0087L40.759 89.5959C40.6753 89.5646 40.5915 89.5333 40.5078 89.5011L39.5916 91.9084ZM37.2394 90.9389C37.3249 90.9766 37.4114 91.0152 37.4979 91.0529L38.5291 88.6926C38.4472 88.6567 38.3663 88.6208 38.2844 88.585L37.2394 90.9389ZM34.9415 89.8442C35.0252 89.8866 35.1089 89.9298 35.1935 89.9721L36.3498 87.6706C36.2698 87.6311 36.1907 87.5906 36.1116 87.5501L34.9415 89.8442ZM32.7052 88.6264C32.787 88.6733 32.868 88.7202 32.9499 88.7671L34.2285 86.531C34.1513 86.4868 34.074 86.4427 33.9967 86.3976L32.7052 88.6264ZM30.536 87.2907C30.6151 87.3423 30.6942 87.3938 30.7733 87.4444L32.1698 85.28C32.0953 85.2312 32.0198 85.1834 31.9453 85.1346L30.536 87.2907ZM28.4423 85.8402C28.5186 85.8963 28.595 85.9515 28.6714 86.0066L30.1818 83.9204C30.1092 83.868 30.0374 83.8156 29.9657 83.7631L28.4423 85.8402ZM26.4277 84.2801C26.5004 84.3399 26.574 84.3997 26.6475 84.4585L28.2666 82.456C28.1976 82.3999 28.1277 82.3438 28.0587 82.2868L26.4277 84.2801ZM24.4986 82.6133C24.5686 82.6768 24.6385 82.7403 24.7084 82.8037L26.4323 80.8905C26.3661 80.8307 26.2998 80.7709 26.2336 80.7102L24.4986 82.6133ZM22.6607 80.8463C22.7269 80.9135 22.7931 80.9806 22.8603 81.0477L24.6835 79.2292C24.6201 79.1657 24.5575 79.1023 24.495 79.0388L22.6607 80.8463ZM20.9193 78.9827C20.9818 79.0535 21.0444 79.1244 21.1079 79.1943L23.0259 77.4751C22.9661 77.4088 22.9063 77.3417 22.8474 77.2745L20.9193 78.9827ZM19.28 77.0289C19.3389 77.1025 19.3977 77.177 19.4566 77.2506L21.4639 75.6363C21.4077 75.5664 21.3516 75.4965 21.2964 75.4266L19.28 77.0289ZM17.7465 74.9887C17.8017 75.066 17.856 75.1423 17.9112 75.2196L20.0021 73.7147C19.9497 73.6421 19.8982 73.5694 19.8457 73.4967L17.7465 74.9887ZM16.3234 72.8694C16.374 72.9494 16.4246 73.0294 16.4761 73.1085L18.6443 71.7187C18.5956 71.6432 18.5477 71.5678 18.4999 71.4924L16.3234 72.8694ZM15.0162 70.6756C15.0622 70.7583 15.1091 70.8402 15.156 70.923L17.396 69.6508C17.3519 69.5727 17.3077 69.4954 17.2645 69.4172L15.0162 70.6756ZM13.8286 68.4146C13.87 68.4992 13.9123 68.5847 13.9546 68.6694L16.2599 67.5205C16.2204 67.4404 16.1799 67.3604 16.1403 67.2795L13.8286 68.4146ZM12.7652 66.091C12.802 66.1784 12.8397 66.2658 12.8774 66.3523L15.2416 65.3294C15.2057 65.2475 15.1708 65.1647 15.1358 65.082L12.7652 66.091ZM11.8278 63.7123C11.86 63.8015 11.8931 63.8908 11.9253 63.98L14.341 63.0868C14.3097 63.0031 14.2794 62.9185 14.2481 62.8339L11.8278 63.7123ZM11.0201 61.2848C11.0477 61.3759 11.0753 61.467 11.1038 61.5571L13.5646 60.7955C13.5379 60.7099 13.5122 60.6244 13.4855 60.5379L11.0201 61.2848ZM10.3477 58.8242C10.3697 58.9162 10.3927 59.0082 10.4157 59.0993L12.9142 58.4719C12.8921 58.3855 12.871 58.299 12.8498 58.2116L10.3477 58.8242ZM9.8086 56.3315C9.82608 56.4244 9.84356 56.5173 9.86196 56.6102L12.3908 56.119C12.3733 56.0316 12.3568 55.9433 12.3402 55.8559L9.8086 56.3315ZM9.40476 53.8129C9.41764 53.9067 9.4296 54.0006 9.44248 54.0935L11.9934 53.7393C11.9814 53.651 11.9695 53.5627 11.9575 53.4735L9.40476 53.8129ZM9.13707 51.2778C9.14443 51.3716 9.15179 51.4664 9.16006 51.5602L11.7266 51.3431C11.7193 51.2539 11.7119 51.1647 11.7045 51.0754L9.13707 51.2778ZM9.0046 48.7317C9.00736 48.8264 9.01012 48.9202 9.01288 49.015L11.5877 48.934C11.5849 48.8448 11.5822 48.7556 11.5803 48.6664L9.0046 48.7317ZM9.00644 46.1828C9.00368 46.2766 9.00184 46.3713 9 46.4652L11.5748 46.5204C11.5767 46.4311 11.5785 46.3419 11.5813 46.2527L9.00644 46.1828ZM9.14351 43.6376C9.13615 43.7314 9.12879 43.8261 9.12143 43.92L11.6898 44.1113C11.6963 44.0221 11.7036 43.9328 11.711 43.8436L9.14351 43.6376ZM9.41672 41.1025C9.40384 41.1963 9.39188 41.2901 9.37992 41.383L11.9345 41.7114C11.9456 41.6231 11.9575 41.5339 11.9695 41.4456L9.41672 41.1025ZM9.82424 38.5848C9.80676 38.6777 9.78928 38.7706 9.7718 38.8635L12.3052 39.329C12.3218 39.2407 12.3374 39.1533 12.3549 39.0659L9.82424 38.5848ZM10.3679 36.093C10.3449 36.185 10.3228 36.276 10.3008 36.368L12.8057 36.9696C12.8268 36.8831 12.848 36.7957 12.8691 36.7093L10.3679 36.093ZM11.045 33.6342C11.0174 33.7244 10.9898 33.8154 10.9631 33.9056L13.4312 34.6415C13.457 34.5559 13.4827 34.4704 13.5085 34.3848L11.045 33.6342ZM11.8545 31.215C11.8223 31.3033 11.7901 31.3925 11.7579 31.4818L14.1828 32.3501C14.2131 32.2664 14.2435 32.1818 14.2738 32.0981L11.8545 31.215ZM12.7909 28.8501C12.7542 28.9366 12.7174 29.023 12.6806 29.1095L15.0548 30.1075C15.0889 30.0257 15.1238 29.9438 15.1588 29.8619L12.7909 28.8501ZM13.8534 26.5376C13.812 26.6222 13.7707 26.7068 13.7293 26.7915L16.0465 27.9155C16.0851 27.8355 16.1247 27.7555 16.1643 27.6754L13.8534 26.5376ZM15.0401 24.2849C14.9941 24.3668 14.9481 24.4495 14.9021 24.5314L17.1559 25.7787C17.1992 25.7005 17.2424 25.6233 17.2856 25.5451L15.0401 24.2849ZM16.3455 22.0984C16.2949 22.1784 16.2452 22.2575 16.1946 22.3376L18.3785 23.7035C18.4254 23.6281 18.4732 23.5527 18.5211 23.4773L16.3455 22.0984ZM17.7667 19.9837C17.7125 20.061 17.6573 20.1373 17.603 20.2146L19.7105 21.6955C19.762 21.6229 19.8135 21.5493 19.8651 21.4766L17.7667 19.9837ZM19.2993 17.9481C19.2404 18.0216 19.1825 18.0962 19.1236 18.1697L21.1483 19.7611C21.2035 19.6912 21.2587 19.6213 21.3148 19.5514L19.2993 17.9481ZM20.9386 15.9971C20.876 16.0679 20.8135 16.1387 20.7509 16.2096L22.6883 17.9067C22.7471 17.8395 22.806 17.7724 22.8658 17.7061L20.9386 15.9971ZM22.6809 14.1353C22.6147 14.2024 22.5484 14.2696 22.4822 14.3377L24.3266 16.136C24.3892 16.0716 24.4517 16.0081 24.5143 15.9446L22.6809 14.1353ZM24.5198 12.3692C24.4499 12.4327 24.38 12.497 24.311 12.5605L26.056 14.4545C26.1214 14.3938 26.1876 14.334 26.2538 14.2733L24.5198 12.3692ZM26.4516 10.7024C26.378 10.7622 26.3053 10.822 26.2327 10.8827L27.8747 12.8668C27.9437 12.8098 28.0127 12.7528 28.0817 12.6967L26.4516 10.7024ZM28.469 9.14144C28.3926 9.19755 28.3163 9.25366 28.2408 9.30977L29.7743 11.3794C29.8461 11.3261 29.9178 11.2727 29.9905 11.2203L28.469 9.14144ZM30.5691 7.68992C30.49 7.74144 30.4109 7.79387 30.3318 7.84538L31.7521 9.99414C31.8266 9.94447 31.9012 9.89572 31.9766 9.84697L30.5691 7.68992ZM32.7438 6.35247C32.6619 6.4003 32.58 6.44721 32.4982 6.49504L33.8008 8.71647C33.878 8.6714 33.9553 8.62633 34.0326 8.58126L32.7438 6.35247ZM34.9893 5.13367C34.9047 5.1769 34.8209 5.22013 34.7363 5.26337L35.9175 7.55195C35.9975 7.51055 36.0766 7.47008 36.1567 7.42961L34.9893 5.13367ZM37.2973 4.03721C37.2109 4.07584 37.1244 4.11448 37.0379 4.15311L38.094 6.5024C38.1759 6.46561 38.2577 6.42881 38.3396 6.39294L37.2973 4.03721ZM39.6624 3.06677C39.5741 3.10081 39.4849 3.13392 39.3966 3.16887L40.3238 5.57152C40.4076 5.53932 40.4913 5.50713 40.575 5.47585L39.6624 3.06677ZM42.0781 2.22603C41.988 2.25455 41.8969 2.28398 41.8067 2.31342L42.6025 4.76297C42.688 4.73537 42.7736 4.70778 42.8591 4.68018L42.0781 2.22603ZM44.5288 1.51867C44.4377 1.54258 44.3457 1.5665 44.2546 1.59042L44.917 4.07952C45.0034 4.05653 45.0899 4.03353 45.1764 4.01145L44.5288 1.51867ZM47.0144 0.944683C46.9214 0.96308 46.8294 0.982397 46.7365 1.00171L47.2627 3.52302C47.3501 3.50462 47.4375 3.48714 47.5249 3.46874L47.0144 0.944683ZM49.5266 0.505916C49.4328 0.519714 49.3399 0.533511 49.2461 0.548229L49.6361 3.09437C49.7244 3.08057 49.8127 3.06769 49.901 3.05481L49.5266 0.505916ZM52.0591 0.203286C51.9653 0.211565 51.8706 0.220763 51.7767 0.229962L52.0297 2.79266C52.1189 2.78346 52.2072 2.77518 52.2965 2.7669L52.0591 0.203286ZM54.6027 0.035874C54.5079 0.0395534 54.4141 0.0432328 54.3194 0.0478321L54.4353 2.62065C54.5245 2.61697 54.6137 2.61329 54.703 2.60961L54.6027 0.035874ZM57.1518 0.00275954C57.057 0.00183969 56.9632 0.000919847 56.8684 0L56.8482 2.57557C56.9374 2.57649 57.0266 2.57741 57.1159 2.57833L57.1518 0.00275954ZM59.699 0.104863C59.6052 0.0984237 59.5104 0.0929046 59.4166 0.0864656L59.2602 2.65744C59.3494 2.66296 59.4387 2.66848 59.5279 2.67492L59.699 0.104863ZM62.2379 0.342183C62.1441 0.331145 62.0503 0.320107 61.9564 0.309069L61.663 2.86808C61.7522 2.8782 61.8405 2.88832 61.9288 2.89936L62.2379 0.342183ZM64.7603 0.715641C64.6674 0.699084 64.5745 0.683447 64.4807 0.667809L64.0511 3.20751C64.1394 3.22223 64.2277 3.23786 64.3151 3.2535L64.7603 0.715641ZM67.2597 1.2234C67.1677 1.20224 67.0757 1.18108 66.9838 1.15993L66.4171 3.67203C66.5045 3.69135 66.591 3.71158 66.6783 3.73182L67.2597 1.2234ZM69.7288 1.86637C69.6377 1.83969 69.5475 1.81394 69.4565 1.78818L68.7555 4.26625C68.8411 4.29017 68.9275 4.315 69.0131 4.33984L69.7288 1.86637ZM72.1592 2.6418C72.0699 2.61053 71.9807 2.58017 71.8915 2.5489L71.0571 4.98557C71.1417 5.01409 71.2264 5.04352 71.3101 5.07296L72.1592 2.6418ZM74.5436 3.54785C74.4562 3.51198 74.3688 3.4761 74.2814 3.44115L73.3164 5.82907C73.3992 5.86219 73.482 5.89622 73.5648 5.93026L74.5436 3.54785ZM76.87 4.57808C76.7854 4.53761 76.6998 4.49713 76.6143 4.45758L75.5224 6.79031C75.6033 6.82803 75.6833 6.86574 75.7634 6.90437L76.87 4.57808ZM79.1394 5.73249C79.0566 5.68742 78.9739 5.64326 78.8911 5.59819L77.6749 7.86837C77.7531 7.91069 77.8322 7.953 77.9104 7.99531L79.1394 5.73249ZM81.3435 7.0074C81.2635 6.95773 81.1826 6.90897 81.1025 6.86022L79.7668 9.06234C79.8432 9.10833 79.9195 9.15524 79.995 9.20215L81.3435 7.0074ZM83.4768 8.39913C83.3995 8.34577 83.3214 8.29242 83.2441 8.23907L81.7925 10.3667C81.8661 10.4173 81.9396 10.4679 82.0132 10.5185L83.4768 8.39913ZM85.5337 9.904C85.4592 9.84605 85.3847 9.78902 85.3093 9.73199L83.7454 11.7786C83.8163 11.8329 83.8871 11.8872 83.9579 11.9415L85.5337 9.904ZM87.5069 11.5165C87.4352 11.4549 87.3634 11.3932 87.2917 11.3325L85.6211 13.2927C85.6892 13.3507 85.7573 13.4086 85.8244 13.4675L87.5069 11.5165ZM89.3928 13.232C89.3247 13.1667 89.2566 13.1014 89.1876 13.0361L87.4149 14.9043C87.4793 14.9659 87.5447 15.0275 87.6091 15.0892L89.3928 13.232ZM91.1838 15.0469C91.1194 14.9779 91.0541 14.9089 90.9897 14.8408L89.1195 16.6115C89.1812 16.6768 89.2419 16.7412 89.3035 16.8065L91.1838 15.0469ZM92.8764 16.9546C92.8157 16.882 92.755 16.8102 92.6934 16.7385L90.7312 18.4071C90.7892 18.4751 90.8471 18.5432 90.9042 18.6122L92.8764 16.9546ZM94.4661 18.9507C94.409 18.8753 94.352 18.7998 94.295 18.7244L92.2463 20.2863C92.3006 20.3571 92.3549 20.4289 92.4082 20.4997L94.4661 18.9507ZM95.9462 21.0295C95.8938 20.9514 95.8404 20.8723 95.787 20.7941L93.6584 22.2437C93.709 22.3173 93.7586 22.3918 93.8092 22.4664L95.9462 21.0295ZM97.3132 23.1857C97.2644 23.1047 97.2157 23.0229 97.1669 22.9419L94.9628 24.2757C95.0088 24.352 95.0548 24.4293 95.1008 24.5057L97.3132 23.1857ZM98.5624 25.4135C98.5183 25.3298 98.4741 25.2461 98.429 25.1624L96.1569 26.3757C96.1992 26.4548 96.2406 26.5339 96.2829 26.613L98.5624 25.4135ZM99.6911 27.7058C99.6516 27.6193 99.612 27.5338 99.5716 27.4473L97.2368 28.5355C97.2745 28.6165 97.3123 28.6983 97.35 28.7793L99.6911 27.7058ZM100.694 30.0569C100.659 29.9686 100.624 29.8803 100.588 29.7929L98.1981 30.7533C98.2312 30.836 98.2644 30.9197 98.2975 31.0035L100.694 30.0569ZM101.569 32.4596C101.538 32.3694 101.508 32.2793 101.478 32.1901L99.0389 33.0198C99.0675 33.1044 99.0969 33.1899 99.1245 33.2746L101.569 32.4596ZM102.31 34.9008C102.285 34.8098 102.26 34.7187 102.235 34.6277L99.7546 35.324C99.7785 35.4095 99.8025 35.496 99.8264 35.5825L102.31 34.9008ZM102.919 37.378C102.899 37.286 102.879 37.1931 102.858 37.1011L100.344 37.6622C100.364 37.7496 100.383 37.837 100.402 37.9244L102.919 37.378ZM103.393 39.8837C103.378 39.7908 103.363 39.6969 103.347 39.604L100.806 40.029C100.821 40.1173 100.836 40.2056 100.849 40.2939L103.393 39.8837ZM103.73 42.4114C103.72 42.3176 103.71 42.2238 103.699 42.1299L101.14 42.4178C101.15 42.5061 101.159 42.5954 101.169 42.6846L103.73 42.4114ZM103.933 44.9529C103.928 44.8582 103.923 44.7644 103.917 44.6696L101.346 44.8205C101.352 44.9097 101.356 44.9989 101.361 45.0882L103.933 44.9529Z" fill="#8B6E38"/>
</g>
<path d="M36.9014 41V40.488L39.0134 39.432V24.648L36.9014 23.592V23.08H45.1254V23.592L42.8854 24.648V39.432L45.1254 40.488V41H36.9014ZM49.6739 41V40.232L59.2099 24.712H52.3939L50.5059 28.552H49.9939V23.08H64.0099V23.848L54.5059 39.368H61.8339L63.8179 35.24H64.3299V41H49.6739ZM68.8701 41V40.488L70.9821 39.432V24.648L68.8701 23.592V23.08H77.0941V23.592L74.8541 24.648V39.432L77.0941 40.488V41H68.8701ZM12.0558 73.32C10.1358 73.32 8.42908 72.936 6.93575 72.168C5.46375 71.4 4.30108 70.3547 3.44775 69.032C2.61575 67.688 2.19975 66.1627 2.19975 64.456C2.19975 63.0267 2.47708 61.7147 3.03175 60.52C3.58642 59.3253 4.34375 58.3013 5.30375 57.448C6.28508 56.5733 7.39442 55.9013 8.63175 55.432C9.86908 54.9627 11.1598 54.728 12.5038 54.728C13.4424 54.728 14.2424 54.792 14.9038 54.92C15.5651 55.0267 16.1518 55.1867 16.6638 55.4C17.1758 55.592 17.6878 55.816 18.1998 56.072L18.4237 60.808H17.8798L15.6718 57.256C15.2024 56.9147 14.7224 56.68 14.2318 56.552C13.7624 56.424 13.2184 56.36 12.5998 56.36C11.3624 56.36 10.2531 56.6907 9.27175 57.352C8.31175 58.0133 7.54375 58.92 6.96775 60.072C6.41308 61.224 6.13575 62.5573 6.13575 64.072C6.13575 66.4827 6.72242 68.36 7.89575 69.704C9.09042 71.0267 10.6584 71.688 12.5998 71.688C13.1971 71.688 13.7411 71.6453 14.2318 71.56C14.7438 71.4533 15.2238 71.2827 15.6718 71.048L18.1678 67.496H18.6798L18.3598 71.912C17.6131 72.3387 16.7171 72.68 15.6718 72.936C14.6264 73.192 13.4211 73.32 12.0558 73.32ZM22.8828 73V72.488L25.2188 71.432V56.648L22.8828 55.592V55.08H31.3628V55.592L29.0908 56.648V62.92H37.2508V56.648L34.9788 55.592V55.08H43.4268V55.592L41.1228 56.648V71.432L43.4268 72.488V73H34.9788V72.488L37.2508 71.432V64.552H29.0908V71.432L31.3628 72.488V73H22.8828ZM45.8938 73V72.488L47.4938 71.624L54.6298 54.92H56.8058L63.8138 71.496L65.7658 72.488V73H57.6058V72.488L59.8458 71.528L57.9578 66.984H51.4298L49.5418 71.56L51.8458 72.488V73H45.8938ZM52.1018 65.352H57.2858L54.6938 59.112L52.1018 65.352ZM68.0993 73V72.488L70.4353 71.432L71.0113 56.648L68.5793 55.592V55.08H75.3953L80.9313 67.528L86.5633 55.08H93.0913V55.592L90.7233 56.424L91.1713 71.432L93.2513 72.488V73H85.0913V72.488L87.2353 71.464L86.9793 58.376L80.3233 73.128H79.1713L72.6753 58.408L72.3553 71.464L74.7233 72.488V73H68.0993ZM96.4765 73V72.488L98.8445 71.432V56.648L96.4765 55.592V55.08H105.117C107.442 55.08 109.234 55.4853 110.493 56.296C111.751 57.1067 112.381 58.3547 112.381 60.04C112.381 61.128 112.039 62.0667 111.357 62.856C110.695 63.624 109.778 64.2213 108.605 64.648C107.431 65.0747 106.098 65.288 104.605 65.288H102.717V71.432L105.469 72.488V73H96.4765ZM102.717 56.712V63.72H103.965C105.373 63.72 106.461 63.4107 107.229 62.792C108.018 62.1733 108.413 61.2987 108.413 60.168C108.413 58.9307 108.007 58.0453 107.197 57.512C106.407 56.9787 105.266 56.712 103.773 56.712H102.717Z" fill="url(#paint0_linear_174_18)"/>
<defs>
<linearGradient id="paint0_linear_174_18" x1="57" y1="15" x2="57" y2="79" gradientUnits="userSpaceOnUse">
<stop stop-color="#C3A758"/>
<stop offset="1" stop-color="#8B6E38"/>
</linearGradient>
<clipPath id="clip0_174_18">
<rect width="95" height="95" fill="white" transform="translate(9)"/>
</clipPath>
</defs>
</svg>
