<svg width="50" height="50" viewBox="0 0 50 50" fill="none" xmlns="http://www.w3.org/2000/svg">
<g clip-path="url(#clip0_35_10)">
<path d="M34.647 26.785C34.6922 26.4157 34.8237 26.0622 35.0308 25.7531C35.2378 25.444 35.5147 25.1879 35.839 25.0055C33 24.04 30.007 25.933 29.6445 28.8915C29.327 31.475 31.163 33.8245 33.7445 34.1415C36.9475 34.5345 39.5975 31.652 38.9245 28.484C37.477 30.449 34.3495 29.2095 34.647 26.785ZM21.535 26.259C21.3322 26.8741 20.9079 27.3917 20.3446 27.7114C19.7813 28.031 19.1193 28.1297 18.4872 27.9884C17.8552 27.847 17.2983 27.4757 16.9248 26.9466C16.5514 26.4175 16.388 25.7684 16.4665 25.1255C16.5393 24.531 16.8144 23.9796 17.2456 23.5638C17.6767 23.148 18.2377 22.8932 18.8345 22.842C18.1084 22.4105 17.3008 22.1343 16.4625 22.031C11.1155 21.3745 7.609 27.5215 10.8905 31.795C11.8505 33.045 13.291 33.9245 14.978 34.1305C19.374 34.6705 22.857 30.475 21.535 26.259ZM27.7595 41.662C27.9845 40.08 25.9495 38.4815 23.213 38.091C20.4765 37.701 18.0755 38.6665 17.85 40.2485C17.6245 41.8305 19.66 43.4295 22.396 43.82C25.1325 44.21 27.5335 43.244 27.7595 41.662Z" fill="#C3A758"/>
<path d="M47.152 2.12012C42.6545 -1.64338 33.4995 -0.371382 33.817 5.74162C32.92 6.17812 31.883 6.77912 30.9595 7.55762C29.9195 5.64562 28.1175 0.00611754 28.1175 0.00611754C28.1175 0.00611754 23.1605 1.76212 19.2715 6.14162L17.0565 4.43162C17.0565 4.43162 15.715 6.57062 14.7565 8.36762C13.2845 7.56262 12.14 7.38162 10.3445 7.38162C4.6995 7.38162 0 11.8996 0 17.5176C0 23.0976 3.995 25.9991 3.995 25.9991C3.579 27.0381 1.573 30.9976 2.3855 36.1316L3.574 35.4131C2.215 39.9141 3.098 43.8451 3.335 44.7406C1.557 46.7941 3.025 50.0001 5.7285 50.0001H45.268C48.045 50.0001 49.4595 46.6791 47.5535 44.6821L47.2415 44.3506C47.4215 43.2621 48.0035 39.0416 47.1275 34.4481L48.6395 35.0121C48.6395 35.0121 48.1495 29.9711 45.8755 27.2091C47.47 26.0006 48.2245 23.3971 48.2245 23.3971C48.2245 23.3971 47.2875 22.9411 45.9095 21.8346C47.9745 19.9911 47.996 16.9896 46.3605 15.0831C51.159 12.1671 50.992 5.33362 47.152 2.12012ZM41.897 21.0586C38.1495 21.0586 37.2985 16.8681 40.4665 15.6356C42.6165 14.7996 45.275 16.0131 45.275 18.2466C45.275 19.9986 43.603 21.0586 41.897 21.0586ZM47.7355 8.44512C47.7355 12.3771 44.589 14.2596 40.7575 14.2496C39.7355 14.2471 38.917 13.3956 38.917 12.3736V10.9726C38.917 10.3451 39.439 9.86862 40.0615 9.87262C41.1815 9.87762 42.091 9.22012 42.091 8.08162C42.091 6.78662 40.465 6.48812 39.9605 7.74262C39.5065 8.87162 37.6085 8.43412 36.745 7.38662C35.614 6.01562 35.84 3.75962 37.73 2.90962C38.6755 2.48362 39.739 2.25462 40.8435 2.25462C44.6285 2.25462 47.7355 4.43212 47.7355 8.44512ZM3.304 21.9761C0.676 13.5361 7.6965 9.07012 12.685 9.74262C10.4455 11.1811 7.499 14.2246 6.042 20.5626C5.4795 20.8901 5.081 21.4726 4.801 22.0786C4.496 22.7421 3.521 22.6736 3.304 21.9761ZM5.547 47.9856C4.6485 47.8491 4.221 46.7181 4.872 46.0166C6.783 44.0121 5.697 45.1506 7.6025 43.1511C9.2025 41.4436 11.9325 41.4301 13.546 43.1511C15.184 44.8861 14.6605 44.3321 16.276 46.0441C16.9685 46.7906 16.4625 48.0006 15.419 48.0006H13.0645C5.116 47.9991 5.6755 48.0056 5.547 47.9856ZM45.2685 47.9991H35.6505C34.653 47.9991 34.1155 46.7841 34.8155 46.0581L37.5095 43.1996C39.1345 41.4926 41.8295 41.5096 43.4105 43.1996C46.3795 46.3496 46.2435 46.1581 46.3545 46.4481C46.6245 47.1566 46.117 47.9991 45.2685 47.9991ZM45.9395 24.0956C45.9395 24.0956 44.8715 26.0041 42.707 27.1816C43.654 27.7541 45.0685 28.9866 45.742 31.4536L43.768 30.7886C45.857 35.7921 45.986 39.6386 45.425 42.4236C44.7875 41.7486 44.375 41.2536 43.49 40.7411C41.1775 39.4041 38.116 39.6411 35.914 41.9761L33.365 44.6811C33.0101 45.0535 32.7524 45.5077 32.6148 46.0034C32.4771 46.4991 32.4638 47.021 32.576 47.5231C28.409 48.2251 22.934 48.3366 18.497 47.6166C18.6261 47.1006 18.6235 46.5604 18.4894 46.0456C18.3553 45.5308 18.094 45.058 17.7295 44.6706C14.7805 41.5461 14.533 41.1576 13.386 40.5586C10.8855 39.2536 7.946 39.8636 6.1495 41.7761L5.4295 42.5321C4.6785 39.7051 4.5185 35.7021 6.193 30.3061C5.51521 30.6181 4.8567 30.9704 4.221 31.3611C4.505 28.0561 6.7265 25.3116 8.025 23.9731C6.919 24.0346 6.097 24.3456 6.097 24.3456C6.153 22.5786 7.614 20.8176 8.8895 19.5986C10.9415 12.7321 14.8855 11.2296 15.7725 10.9811C16.691 9.74762 17.5845 8.47762 18.028 7.20662C18.028 7.20662 18.928 7.89012 19.8415 9.07512C23.779 5.25412 27.04 3.15812 27.04 3.15812C27.594 6.14434 28.574 9.03552 29.95 11.7431C31.1175 10.5626 32.6795 9.17612 34.4865 8.05012C35.0335 9.02762 35.8385 9.75012 36.763 10.1786C36.642 10.6701 36.667 10.8801 36.667 12.3746C36.6655 13.3068 36.9801 14.2119 37.5595 14.9421C36.722 15.8471 36.2695 16.9941 36.2695 18.2466C36.2695 22.0271 40.396 24.1831 43.946 22.9686C44.991 23.7946 45.9395 24.0956 45.9395 24.0956Z" fill="#C3A758"/>
</g>
<defs>
<clipPath id="clip0_35_10">
<rect width="50" height="50" fill="white"/>
</clipPath>
</defs>
</svg>
