<svg width="15" height="20" viewBox="0 0 15 20" fill="none" xmlns="http://www.w3.org/2000/svg">
<g clip-path="url(#clip0_29_40)">
<path fill-rule="evenodd" clip-rule="evenodd" d="M3.50624 5.64575C-0.0725147 11.1145 -0.143765 11.3057 0.94686 12.5107C1.56374 13.1926 2.25186 13.7501 2.47624 13.7501C2.84124 13.7501 8.30311 6.68325 9.56436 4.5795C10.0294 3.8045 8.32249 -0.0136299 7.52124 0.0101201C7.33749 0.0151201 5.53124 2.55137 3.50624 5.64575ZM9.69436 7.49262C8.60561 8.69575 8.62499 8.81512 10.3075 11.2426C11.2631 12.622 12.2444 13.7501 12.4881 13.7501C12.7319 13.7501 13.4375 13.1907 14.0556 12.5076C15.1444 11.3045 15.125 11.1851 13.4425 8.75762C12.4869 7.37825 11.5056 6.25012 11.2619 6.25012C11.0181 6.25012 10.3125 6.80949 9.69436 7.49262ZM5.33124 13.1057L3.55311 14.9614L5.29936 17.4807C6.25936 18.8664 7.24999 20.0001 7.49999 20.0001C7.74999 20.0001 8.74061 18.8664 9.70061 17.4807L11.4469 14.9614L9.66874 13.1057C8.69124 12.0851 7.71499 11.2501 7.49999 11.2501C7.28499 11.2501 6.30874 12.0851 5.33124 13.1057Z" fill="#FCBC0C"/>
</g>
<defs>
<clipPath id="clip0_29_40">
<rect width="15" height="20" fill="white"/>
</clipPath>
</defs>
</svg>
