<svg width="20" height="20" viewBox="0 0 20 20" fill="none" xmlns="http://www.w3.org/2000/svg">
<path fill-rule="evenodd" clip-rule="evenodd" d="M0.761377 10.9243L10.5647 1.23767C10.5873 1.21544 10.6091 1.19374 10.6304 1.17258C10.9449 0.859901 11.1391 0.66685 11.665 0.66685H19.0004C19.1904 0.66685 19.3338 0.809556 19.3338 1.00028V8.30362C19.3338 8.66838 19.2718 8.84043 19.1844 8.97913C19.1189 9.08494 19.0215 9.18084 18.8955 9.30482C18.8547 9.34493 18.811 9.38798 18.7643 9.43526L9.075 19.238C8.94363 19.3713 8.74157 19.3713 8.6062 19.2366L0.764044 11.3945C0.628674 11.2591 0.62734 11.0564 0.761377 10.9243ZM11.665 11.3364H5.66339C5.47867 11.3364 5.32997 11.4852 5.32997 11.6699C5.32997 11.8546 5.47867 12.0033 5.66339 12.0033H11.665C11.8498 12.0033 11.9985 11.8546 11.9985 11.6699C11.9985 11.4852 11.8498 11.3364 11.665 11.3364ZM7.33052 14.0038C7.33052 13.2703 7.93068 12.6701 8.66422 12.6701C9.39775 12.6701 9.99792 13.2703 9.99792 14.0038C9.99792 14.7374 9.39775 15.3376 8.66422 15.3376C7.93068 15.3376 7.33052 14.7374 7.33052 14.0038ZM7.33052 9.3359C7.33052 8.60236 7.93068 8.0022 8.66422 8.0022C9.39775 8.0022 9.99792 8.60236 9.99792 9.3359C9.99792 10.0694 9.39775 10.6696 8.66422 10.6696C7.93068 10.6696 7.33052 10.0694 7.33052 9.3359ZM15.3327 3.33425C15.3327 2.60071 15.9329 2.00055 16.6664 2.00055C17.4 2.00055 18.0001 2.60071 18.0001 3.33425C18.0001 4.06778 17.4 4.66795 16.6664 4.66795C15.9329 4.66795 15.3327 4.06778 15.3327 3.33425Z" fill="#9C9C9C"/>
<path d="M8.66422 8.66905C9.03632 8.66905 9.33107 8.9638 9.33107 9.3359C9.33107 9.708 9.03632 10.0028 8.66422 10.0028C8.29211 10.0028 7.99737 9.708 7.99737 9.3359C7.99737 8.9638 8.29211 8.66905 8.66422 8.66905Z" fill="#9C9C9C"/>
<path d="M8.66422 13.337C9.03632 13.337 9.33107 13.6317 9.33107 14.0038C9.33107 14.376 9.03632 14.6707 8.66422 14.6707C8.29211 14.6707 7.99737 14.376 7.99737 14.0038C7.99737 13.6317 8.29211 13.337 8.66422 13.337Z" fill="#9C9C9C"/>
<path d="M16.6664 2.6674C17.0385 2.6674 17.3333 2.96215 17.3333 3.33425C17.3333 3.70635 17.0385 4.0011 16.6664 4.0011C16.2943 4.0011 15.9996 3.70635 15.9996 3.33425C15.9996 2.96215 16.2943 2.6674 16.6664 2.6674Z" fill="#9C9C9C"/>
</svg>
