<svg width="20" height="20" viewBox="0 0 20 20" fill="none" xmlns="http://www.w3.org/2000/svg">
<g clip-path="url(#clip0_26_14)">
<path fill-rule="evenodd" clip-rule="evenodd" d="M8.32587 1.26622L6.79881 2.50004L6.78175 7.38475L6.76469 12.2697L8.38234 13.3439L9.99998 14.4177L11.6176 13.3439L13.2353 12.2697L13.2188 7.38475L13.2023 2.50004L11.6185 1.25004C10.747 0.562394 9.99351 0.00739352 9.94351 0.0162171C9.89381 0.0247465 9.16587 0.587394 8.32587 1.26622ZM3.07822 4.95004C2.58734 5.3821 1.66616 6.18592 1.03087 6.73651L-0.12384 7.73798L0.526454 8.16945C1.09734 8.54857 1.17645 8.86004 1.17645 10.7256C1.17645 12.4765 1.07292 12.9436 0.588219 13.3824C0.264689 13.675 -1.67936e-05 14.0059 -1.67936e-05 14.1171C-1.67936e-05 14.3153 8.38234 20 8.67469 20C8.75645 20 8.81763 19.173 8.81028 18.1618L8.79675 16.3236L6.4641 14.8565L4.13145 13.3895L4.05116 8.7771L3.97057 4.16504L3.07822 4.95004ZM15.5882 8.93504V13.4583L13.3862 14.8909L11.1841 16.3236L11.1803 18.1618C11.1782 19.173 11.2435 20 11.3253 20C11.6176 20 20 14.3153 20 14.1171C20 14.0059 19.7353 13.675 19.4117 13.3824C18.927 12.9436 18.8235 12.4765 18.8235 10.7256C18.8235 8.8771 18.9059 8.54651 19.4567 8.18063C20.0753 7.77004 20.0444 7.72181 18.1165 6.08592C17.0312 5.16534 16.0182 4.41181 15.8656 4.41181C15.7038 4.41181 15.5882 6.29769 15.5882 8.93504Z" fill="#E4BC3C"/>
</g>
<defs>
<clipPath id="clip0_26_14">
<rect width="20" height="20" fill="white"/>
</clipPath>
</defs>
</svg>
