<svg width="36" height="34" viewBox="0 0 36 34" fill="none" xmlns="http://www.w3.org/2000/svg">
<g clip-path="url(#clip0_19_15)">
<path d="M30.1095 26.7466L21.9591 18.8699C23.6155 16.6741 24.3485 13.7983 23.3957 10.7383C22.3988 7.57912 19.6283 5.09995 16.286 4.44828C9.46947 3.11662 3.59116 8.81162 4.96912 15.3849C5.64344 18.6291 8.20879 21.3066 11.4778 22.2558C14.6441 23.1766 17.62 22.4683 19.8921 20.8674L28.0426 28.7441C28.6143 29.2966 29.5378 29.2966 30.1095 28.7441C30.6812 28.1916 30.6812 27.2991 30.1095 26.7466ZM7.69572 13.4583C7.69572 9.93078 10.6422 7.08328 14.2923 7.08328C17.9425 7.08328 20.8889 9.93078 20.8889 13.4583C20.8889 16.9858 17.9425 19.8333 14.2923 19.8333C10.6422 19.8333 7.69572 16.9858 7.69572 13.4583Z" fill="#FFF9EC"/>
</g>
<defs>
<clipPath id="clip0_19_15">
<rect width="35.1819" height="34" fill="white" transform="translate(0.366211)"/>
</clipPath>
</defs>
</svg>
