<svg width="40" height="40" viewBox="-30 -30 100 100" fill="none" xmlns="http://www.w3.org/2000/svg">
<path fill-rule="evenodd" clip-rule="evenodd" d="M19.9999 5.99999C12.1999 5.99999 1.99986 2 1.99986 2V12C1.99986 32 19.9999 38 19.9999 38C19.9999 38 38 31.8 38 12V2C38 2 27.7999 5.99999 19.9999 5.99999ZM5.99986 16C5.99986 14 8.59986 14 9.99986 14C11.2581 14.0997 12.4699 14.5196 13.5201 15.2197C14.5703 15.9199 15.4239 16.8769 15.9999 18C16.011 18.5284 15.9152 19.0535 15.7181 19.5439C15.5211 20.0343 15.2269 20.4797 14.8532 20.8533C14.4795 21.227 14.0341 21.5213 13.5437 21.7183C13.0534 21.9154 12.5282 22.0112 11.9999 22C10.453 21.8675 9.00263 21.1929 7.90483 20.095C6.80703 18.9972 6.13235 17.5469 5.99986 16ZM19.9999 32C18.2082 31.9554 16.4749 31.3537 15.0411 30.2783C13.6074 29.2028 12.5443 27.7075 11.9999 26C14.4178 27.4243 17.1961 28.1189 19.9999 28C22.7939 28.0305 25.5489 27.3418 27.9999 26C27.4554 27.7075 26.3923 29.2028 24.9586 30.2783C23.5248 31.3537 21.7915 31.9554 19.9999 32ZM27.9999 22C27.4715 22.0112 26.9464 21.9154 26.456 21.7183C25.9657 21.5213 25.5202 21.227 25.1465 20.8533C24.7729 20.4797 24.4786 20.0343 24.2816 19.5439C24.0845 19.0535 23.9887 18.5284 23.9999 18C24.5758 16.8769 25.4295 15.9199 26.4797 15.2197C27.5298 14.5196 28.7417 14.0997 30 14C31.4 14 34 14 34 16C33.8674 17.5469 33.1926 18.9972 32.0949 20.095C30.9971 21.1929 29.5469 21.8675 27.9999 22Z" fill="#CCBD90"/>
</svg>
